<svg width="100" height="100" viewBox="0 0 100 100" fill="none" xmlns="http://www.w3.org/2000/svg">
<g id="Group 279">
<path id="Ellipse 6" d="M100 50C100 77.6142 77.6142 100 50 100C22.3858 100 0 77.6142 0 50C0 22.3858 22.3858 0 50 0C77.6142 0 100 22.3858 100 50Z" fill="#5E0421"/>
<g id="&#208;&#174;&#208;&#159;">
<path id="Vector" d="M59.0508 65V37H84.5708V65H78.1308V40.8L79.6108 42.28H64.0108L65.4908 40.8V65H59.0508Z" fill="white"/>
<path id="Vector_2" d="M14.4805 65V37H20.9205V48H28.1605V53.6H20.9205V65H14.4805ZM39.2005 65.48C37.0671 65.48 35.0938 65.12 33.2805 64.4C31.4938 63.68 29.9338 62.68 28.6005 61.4C27.2671 60.0934 26.2271 58.56 25.4805 56.8C24.7605 55.0134 24.4005 53.08 24.4005 51C24.4005 48.8934 24.7605 46.96 25.4805 45.2C26.2271 43.44 27.2671 41.92 28.6005 40.64C29.9338 39.3334 31.4938 38.32 33.2805 37.6C35.0938 36.88 37.0671 36.52 39.2005 36.52C41.3071 36.52 43.2671 36.88 45.0805 37.6C46.8938 38.32 48.4538 39.3334 49.7605 40.64C51.0938 41.92 52.1338 43.4534 52.8805 45.24C53.6271 47 54.0005 48.92 54.0005 51C54.0005 53.08 53.6271 55.0134 52.8805 56.8C52.1338 58.56 51.0938 60.0934 49.7605 61.4C48.4538 62.68 46.8938 63.68 45.0805 64.4C43.2671 65.12 41.3071 65.48 39.2005 65.48ZM39.2005 59.96C40.3738 59.96 41.4538 59.7467 42.4405 59.32C43.4271 58.8934 44.2938 58.2934 45.0405 57.52C45.7871 56.72 46.3738 55.7734 46.8005 54.68C47.2271 53.5867 47.4405 52.36 47.4405 51C47.4405 49.64 47.2271 48.4134 46.8005 47.32C46.3738 46.2267 45.7871 45.2934 45.0405 44.52C44.2938 43.72 43.4271 43.1067 42.4405 42.68C41.4538 42.2534 40.3738 42.04 39.2005 42.04C38.0538 42.04 36.9738 42.2534 35.9605 42.68C34.9738 43.1067 34.1071 43.72 33.3605 44.52C32.6138 45.2934 32.0271 46.2267 31.6005 47.32C31.1738 48.4134 30.9605 49.64 30.9605 51C30.9605 52.36 31.1738 53.5867 31.6005 54.68C32.0271 55.7734 32.6138 56.72 33.3605 57.52C34.1071 58.2934 34.9738 58.8934 35.9605 59.32C36.9738 59.7467 38.0538 59.96 39.2005 59.96Z" fill="white"/>
</g>
</g>
</svg>
