<svg width="100" height="100" viewBox="0 0 100 100" fill="none" xmlns="http://www.w3.org/2000/svg">
<g id="Group 278">
<path id="Ellipse 6" d="M100 50C100 77.6142 77.6142 100 50 100C22.3858 100 0 77.6142 0 50C0 22.3858 22.3858 0 50 0C77.6142 0 100 22.3858 100 50Z" fill="#5E0421"/>
<g id="OO">
<path id="Vector" d="M66.6705 65.48C64.4572 65.48 62.4039 65.12 60.5105 64.4C58.6439 63.68 57.0172 62.6667 55.6305 61.36C54.2705 60.0534 53.2039 58.52 52.4305 56.76C51.6839 55 51.3105 53.08 51.3105 51C51.3105 48.92 51.6839 47 52.4305 45.24C53.2039 43.48 54.2839 41.9467 55.6705 40.64C57.0572 39.3334 58.6839 38.32 60.5505 37.6C62.4172 36.88 64.4439 36.52 66.6305 36.52C68.8439 36.52 70.8705 36.88 72.7105 37.6C74.5772 38.32 76.1905 39.3334 77.5505 40.64C78.9372 41.9467 80.0172 43.48 80.7905 45.24C81.5639 46.9734 81.9506 48.8934 81.9506 51C81.9506 53.08 81.5639 55.0134 80.7905 56.8C80.0172 58.56 78.9372 60.0934 77.5505 61.4C76.1905 62.68 74.5772 63.68 72.7105 64.4C70.8705 65.12 68.8572 65.48 66.6705 65.48ZM66.6305 59.96C67.8839 59.96 69.0305 59.7467 70.0705 59.32C71.1372 58.8934 72.0705 58.28 72.8705 57.48C73.6705 56.68 74.2839 55.7334 74.7105 54.64C75.1639 53.5467 75.3905 52.3334 75.3905 51C75.3905 49.6667 75.1639 48.4534 74.7105 47.36C74.2839 46.2667 73.6705 45.32 72.8705 44.52C72.0972 43.72 71.1772 43.1067 70.1105 42.68C69.0439 42.2534 67.8839 42.04 66.6305 42.04C65.3772 42.04 64.2172 42.2534 63.1505 42.68C62.1105 43.1067 61.1905 43.72 60.3905 44.52C59.5905 45.32 58.9639 46.2667 58.5105 47.36C58.0839 48.4534 57.8705 49.6667 57.8705 51C57.8705 52.3067 58.0839 53.52 58.5105 54.64C58.9639 55.7334 59.5772 56.68 60.3505 57.48C61.1505 58.28 62.0839 58.8934 63.1505 59.32C64.2172 59.7467 65.3772 59.96 66.6305 59.96Z" fill="white"/>
<path id="Vector_2" d="M32.9205 65.48C30.7072 65.48 28.6539 65.12 26.7605 64.4C24.8939 63.68 23.2672 62.6667 21.8805 61.36C20.5205 60.0534 19.4539 58.52 18.6805 56.76C17.9339 55 17.5605 53.08 17.5605 51C17.5605 48.92 17.9339 47 18.6805 45.24C19.4539 43.48 20.5339 41.9467 21.9205 40.64C23.3072 39.3334 24.9339 38.32 26.8005 37.6C28.6672 36.88 30.6939 36.52 32.8805 36.52C35.0939 36.52 37.1205 36.88 38.9605 37.6C40.8272 38.32 42.4405 39.3334 43.8006 40.64C45.1872 41.9467 46.2672 43.48 47.0405 45.24C47.8139 46.9734 48.2006 48.8934 48.2006 51C48.2006 53.08 47.8139 55.0134 47.0405 56.8C46.2672 58.56 45.1872 60.0934 43.8006 61.4C42.4405 62.68 40.8272 63.68 38.9605 64.4C37.1205 65.12 35.1072 65.48 32.9205 65.48ZM32.8805 59.96C34.1339 59.96 35.2805 59.7467 36.3205 59.32C37.3872 58.8934 38.3205 58.28 39.1205 57.48C39.9205 56.68 40.5339 55.7334 40.9605 54.64C41.4139 53.5467 41.6405 52.3334 41.6405 51C41.6405 49.6667 41.4139 48.4534 40.9605 47.36C40.5339 46.2667 39.9205 45.32 39.1205 44.52C38.3472 43.72 37.4272 43.1067 36.3605 42.68C35.2939 42.2534 34.1339 42.04 32.8805 42.04C31.6272 42.04 30.4672 42.2534 29.4005 42.68C28.3605 43.1067 27.4405 43.72 26.6405 44.52C25.8405 45.32 25.2139 46.2667 24.7605 47.36C24.3339 48.4534 24.1205 49.6667 24.1205 51C24.1205 52.3067 24.3339 53.52 24.7605 54.64C25.2139 55.7334 25.8272 56.68 26.6005 57.48C27.4005 58.28 28.3339 58.8934 29.4005 59.32C30.4672 59.7467 31.6272 59.96 32.8805 59.96Z" fill="white"/>
</g>
</g>
</svg>
