<svg width="100" height="100" viewBox="0 0 100 100" fill="none" xmlns="http://www.w3.org/2000/svg">
<g id="Group 278">
<path id="Ellipse 6" d="M100 50C100 77.6142 77.6142 100 50 100C22.3858 100 0 77.6142 0 50C0 22.3858 22.3858 0 50 0C77.6142 0 100 22.3858 100 50Z" fill="#5E0421"/>
<g id="O&#208;&#154;">
<path id="Vector" d="M73.3504 65L64.6304 51.52L69.8704 48.36L80.7104 65H73.3504ZM55.1504 65V37H61.5904V65H55.1504ZM59.7104 53.72V48.32H69.4704V53.72H59.7104ZM70.4704 51.72L64.5104 51L73.5904 37H80.4304L70.4704 51.72Z" fill="white"/>
<path id="Vector_2" d="M34.9205 65.48C32.7072 65.48 30.6539 65.12 28.7605 64.4C26.8939 63.68 25.2672 62.6667 23.8805 61.36C22.5205 60.0534 21.4539 58.52 20.6805 56.76C19.9339 55 19.5605 53.08 19.5605 51C19.5605 48.92 19.9339 47 20.6805 45.24C21.4539 43.48 22.5339 41.9467 23.9205 40.64C25.3072 39.3334 26.9339 38.32 28.8005 37.6C30.6672 36.88 32.6939 36.52 34.8805 36.52C37.0939 36.52 39.1205 36.88 40.9605 37.6C42.8272 38.32 44.4405 39.3334 45.8006 40.64C47.1872 41.9467 48.2672 43.48 49.0405 45.24C49.8139 46.9734 50.2006 48.8934 50.2006 51C50.2006 53.08 49.8139 55.0134 49.0405 56.8C48.2672 58.56 47.1872 60.0934 45.8006 61.4C44.4405 62.68 42.8272 63.68 40.9605 64.4C39.1205 65.12 37.1072 65.48 34.9205 65.48ZM34.8805 59.96C36.1339 59.96 37.2805 59.7467 38.3205 59.32C39.3872 58.8934 40.3205 58.28 41.1205 57.48C41.9205 56.68 42.5339 55.7334 42.9605 54.64C43.4139 53.5467 43.6405 52.3334 43.6405 51C43.6405 49.6667 43.4139 48.4534 42.9605 47.36C42.5339 46.2667 41.9205 45.32 41.1205 44.52C40.3472 43.72 39.4272 43.1067 38.3605 42.68C37.2939 42.2534 36.1339 42.04 34.8805 42.04C33.6272 42.04 32.4672 42.2534 31.4005 42.68C30.3605 43.1067 29.4405 43.72 28.6405 44.52C27.8405 45.32 27.2139 46.2667 26.7605 47.36C26.3339 48.4534 26.1205 49.6667 26.1205 51C26.1205 52.3067 26.3339 53.52 26.7605 54.64C27.2139 55.7334 27.8272 56.68 28.6005 57.48C29.4005 58.28 30.3339 58.8934 31.4005 59.32C32.4672 59.7467 33.6272 59.96 34.8805 59.96Z" fill="white"/>
</g>
</g>
</svg>
