<svg width="13" height="14" viewBox="0 0 13 14" fill="none" xmlns="http://www.w3.org/2000/svg">
<g id="Group 114">
<g id="Layer 58">
<g id="Layer 31">
<path id="Vector" fill-rule="evenodd" clip-rule="evenodd" d="M12.558 2.23785C12.5418 1.98422 12.4745 1.7418 12.3776 1.50919C12.1986 1.08179 11.9186 0.75109 11.5134 0.543699C11.2617 0.41338 10.9925 0.353124 10.7125 0.330704C10.341 0.301277 9.97347 0.330704 9.61406 0.425991C9.31926 0.503062 9.02851 0.596948 8.7364 0.689433C8.36622 0.807141 7.99739 0.929053 7.60836 0.968289C7.39702 0.989308 7.18569 0.993512 6.97704 0.95848C6.75493 0.922046 6.53686 0.863192 6.32552 0.780517C5.99842 0.651598 5.67401 0.518476 5.34825 0.388156C5.00499 0.249429 4.65904 0.128918 4.29021 0.078472C4.02099 0.0420386 3.75042 0.0182167 3.4785 0C3.2537 0.0224206 3.02756 0.039236 2.8041 0.0672617C2.48508 0.107899 2.17816 0.201785 1.88471 0.336309C1.40685 0.556311 1.00436 0.878607 0.688024 1.31301C0.268038 1.88753 0.0701603 2.54894 0.0136238 3.26219C-0.0159905 3.64475 0.00420108 4.0273 0.0593915 4.40564C0.109197 4.74476 0.184579 5.07966 0.292268 5.40476C0.348805 5.57432 0.398611 5.74808 0.475339 5.90642C0.798405 6.57904 1.22108 7.18299 1.6976 7.74491C2.12028 8.24237 2.58469 8.69638 3.07871 9.11677C3.65754 9.60862 4.27002 10.0514 4.90807 10.4536C5.71439 10.9623 6.55436 11.3995 7.41991 11.7848C7.50202 11.8213 7.59086 11.8451 7.67836 11.8619C7.76586 11.8787 7.83855 11.8241 7.79547 11.719C7.77932 11.6783 7.76451 11.6363 7.74163 11.5998C7.68374 11.5088 7.62182 11.4191 7.55856 11.3308C7.19107 10.8207 6.83839 10.2995 6.53551 9.74455C6.32552 9.35919 6.14111 8.96123 6.0038 8.54084C5.88938 8.19192 5.81131 7.83319 5.78843 7.46605C5.76958 7.17038 5.78169 6.87471 5.84496 6.58464C5.93515 6.17127 6.10341 5.79572 6.37264 5.47623C6.7832 4.98998 7.30683 4.72234 7.92201 4.64947C8.16969 4.62004 8.41737 4.63686 8.66371 4.69011C9.26407 4.82183 9.75002 5.14552 10.1377 5.63738C10.1929 5.70884 10.2521 5.7775 10.314 5.84196C10.3881 5.91903 10.4823 5.95266 10.5833 5.91343C10.6694 5.8798 10.7556 5.83916 10.8309 5.78591C11.1527 5.5561 11.43 5.27444 11.6709 4.95635C12.0034 4.51635 12.2524 4.0273 12.418 3.49481C12.4907 3.25939 12.5499 3.01837 12.5661 2.77174C12.5782 2.59518 12.5674 2.41582 12.5567 2.23926L12.558 2.23785Z" fill="#5E0421"/>
</g>
<g id="Layer 34">
<path id="Vector_2" fill-rule="evenodd" clip-rule="evenodd" d="M10.6092 7.19279C10.6092 7.0975 10.5984 6.99941 10.5782 6.90553C10.519 6.63928 10.3695 6.45712 10.1138 6.37024C9.90244 6.29877 9.68437 6.28756 9.46765 6.28756C8.6896 6.28476 7.91155 6.28756 7.1335 6.28756H7.05273V9.52313C7.07427 9.52313 7.09177 9.52593 7.10927 9.52593C7.9304 9.52593 8.75152 9.52593 9.5713 9.52593C9.72072 9.52593 9.86745 9.51192 10.0115 9.47689C10.1569 9.44186 10.2928 9.3844 10.3992 9.2681C10.5486 9.10555 10.6051 8.90376 10.6078 8.68937C10.6145 8.19051 10.6118 7.69305 10.6078 7.19559L10.6092 7.19279ZM9.67091 8.30261C9.67091 8.36987 9.6588 8.43854 9.63995 8.503C9.59015 8.67535 9.45688 8.77765 9.26439 8.78325C8.88209 8.79306 8.4998 8.79446 8.11751 8.79867C8.07443 8.79867 8.0327 8.79867 7.98289 8.79867V7.02464C7.9977 7.02464 8.00982 7.02184 8.02193 7.02184C8.3948 7.02184 8.76768 7.02043 9.14055 7.02324C9.21728 7.02324 9.29535 7.03865 9.37073 7.05407C9.5363 7.0877 9.62111 7.20681 9.65611 7.36935C9.66822 7.42681 9.67226 7.48846 9.67226 7.54872C9.67361 7.80095 9.67495 8.05178 9.67226 8.30401L9.67091 8.30261Z" fill="#5E0421"/>
</g>
<g id="Layer 38">
<path id="Vector_3" fill-rule="evenodd" clip-rule="evenodd" d="M9.85047 10.9566C9.92585 10.9384 10.0039 10.9286 10.082 10.9272C10.2812 10.923 10.4804 10.923 10.6783 10.9272C10.7604 10.9286 10.8439 10.9412 10.9247 10.9566C11.0902 10.9875 11.1804 11.0842 11.2087 11.2565C11.2195 11.3168 11.2235 11.3784 11.2316 11.4415H12.1617C12.1577 11.2313 12.1779 11.0267 12.1308 10.8249C12.0702 10.5671 11.9369 10.3751 11.6893 10.284C11.5385 10.2294 11.3823 10.2013 11.2248 10.2013C10.6958 10.1985 10.1668 10.2013 9.63778 10.1985C9.48837 10.1985 9.34164 10.2126 9.19626 10.2476C9.05626 10.2812 8.92435 10.3345 8.818 10.4438C8.65512 10.6105 8.59859 10.8235 8.5959 11.0491C8.58917 11.5368 8.59186 12.0244 8.5959 12.5121C8.5959 12.613 8.60532 12.7167 8.62686 12.8147C8.68609 13.0796 8.83416 13.2646 9.08992 13.3514C9.29856 13.4229 9.51394 13.4327 9.72932 13.4355C10.1682 13.4397 10.6056 13.4397 11.0445 13.4355C11.2275 13.4355 11.4106 13.4243 11.591 13.3795C11.8535 13.3122 12.0312 13.1511 12.1119 12.8806C12.1335 12.8091 12.1496 12.7335 12.1523 12.6592C12.159 12.5037 12.1537 12.3467 12.1537 12.1898H11.2356C11.2208 12.2739 11.2114 12.3537 11.1939 12.4322C11.1629 12.5611 11.0795 12.6396 10.957 12.6676C10.8749 12.6858 10.7887 12.6984 10.7039 12.6998C10.5208 12.7054 10.3364 12.7026 10.152 12.6998C10.0672 12.6998 9.98104 12.6956 9.89624 12.683C9.72259 12.6578 9.5974 12.5667 9.55836 12.3789C9.5449 12.3159 9.53413 12.25 9.53279 12.1856C9.53009 11.9502 9.53009 11.7133 9.53279 11.4779C9.53279 11.4135 9.53413 11.3462 9.54894 11.2831C9.59605 11.0744 9.68355 10.9959 9.85047 10.9566Z" fill="#5E0421"/>
</g>
</g>
</g>
</svg>
